<?xml version="1.0" encoding="utf-8"?>
<!-- Generator: Adobe Illustrator 25.2.3, SVG Export Plug-In . SVG Version: 6.00 Build 0)  -->
<svg version="1.1" id="레이어_1" xmlns="http://www.w3.org/2000/svg" xmlns:xlink="http://www.w3.org/1999/xlink" x="0px"
	 y="0px" viewBox="0 0 80 80" style="enable-background:new 0 0 80 80;" xml:space="preserve">
<style type="text/css">
	.st0{fill:none;stroke:#000000;stroke-miterlimit:10;}
	.st1{fill:none;stroke:#FFFFFF;stroke-miterlimit:10;}
	.st2{fill:#FFFFFF;stroke:#000000;stroke-miterlimit:10;}
	.st3{font-family:'AdobeMyungjoStd-Medium-KSCpc-EUC-H';}
	.st4{font-size:0.0825px;}
</style>
<path class="st0" d="M36.51,64.13"/>
<path class="st1" d="M44.77,64.91c10.81,0.64,18.95,3.4,18.95,6.72c0,3.78-10.61,6.85-23.69,6.85s-23.69-3.07-23.69-6.85
	c0-3.26,7.87-5.99,18.41-6.68"/>
<path class="st0" d="M40,49.74"/>
<path class="st0" d="M46.05,48.96"/>
<path class="st0" d="M52.34,46.28"/>
<path class="st0" d="M58.73,40.56"/>
<path class="st1" d="M20.3,39.21c-2.52-3.76-3.99-8.29-3.99-13.16C16.31,12.97,26.92,2.36,40,2.36s23.69,10.61,23.69,23.69
	c0,5.07-1.59,9.77-4.31,13.62"/>
<path class="st0" d="M20.3,39.21"/>
<path class="st0" d="M22.2,41.68"/>
<path class="st0" d="M22.86,42.4"/>
<path class="st0" d="M26.73,45.68"/>
<path class="st0" d="M35.87,49.38"/>
<path class="st0" d="M38.49,49.69"/>
<path class="st0" d="M16.31,52.57"/>
<path class="st1" d="M45.33,64.13l15.8-27.36"/>
<path class="st1" d="M34.72,64.23c1.76,3.05,3.52,6.09,5.28,9.14l5.33-9.24"/>
<path class="st1" d="M18.87,36.76c5.29,9.15,10.57,18.31,15.86,27.46"/>
<path class="st2" d="M-12.35,40.55"/>
<circle class="st1" cx="40" cy="24.35" r="6.05"/>
<path class="st0" d="M41.97,60.61"/>
<text transform="matrix(0.6707 0 0 1 39.9556 74.5479)" class="st3 st4">핑</text>
</svg>
